<mxfile host="app.diagrams.net" modified="2021-11-03T12:34:25.151Z" agent="5.0 (Windows NT 10.0; WOW64) AppleWebKit/537.36 (KHTML, like Gecko) Chrome/86.0.4240.198 Safari/537.36" etag="0723lsnf0GON8S2BifPN" version="15.6.6" type="github">
  <diagram id="YWG_YJwOWfs3mjxEgBmB" name="第 1 页">
    <mxGraphModel dx="1422" dy="734" grid="1" gridSize="10" guides="1" tooltips="1" connect="1" arrows="1" fold="1" page="1" pageScale="1" pageWidth="827" pageHeight="1169" math="0" shadow="0">
      <root>
        <mxCell id="0" />
        <mxCell id="1" parent="0" />
        <mxCell id="8dy6UaJ0SXX49K8TvFF3-1" value="1" style="whiteSpace=wrap;html=1;aspect=fixed;fillColor=default;strokeColor=default;fontColor=default;" parent="1" vertex="1">
          <mxGeometry x="40" y="560" width="40" height="40" as="geometry" />
        </mxCell>
        <mxCell id="8dy6UaJ0SXX49K8TvFF3-2" value="2" style="whiteSpace=wrap;html=1;aspect=fixed;fillColor=default;strokeColor=default;fontColor=default;" parent="1" vertex="1">
          <mxGeometry x="80" y="560" width="40" height="40" as="geometry" />
        </mxCell>
        <mxCell id="8dy6UaJ0SXX49K8TvFF3-3" value="14" style="whiteSpace=wrap;html=1;aspect=fixed;fillColor=default;strokeColor=default;fontColor=default;" parent="1" vertex="1">
          <mxGeometry x="160" y="560" width="40" height="40" as="geometry" />
        </mxCell>
        <mxCell id="8dy6UaJ0SXX49K8TvFF3-29" value="" style="edgeStyle=orthogonalEdgeStyle;rounded=0;orthogonalLoop=1;jettySize=auto;html=1;labelBackgroundColor=default;fontSize=2;fontColor=default;strokeColor=default;strokeWidth=2;fillColor=default;fontStyle=0;exitX=0.5;exitY=0;exitDx=0;exitDy=0;" parent="1" edge="1">
          <mxGeometry relative="1" as="geometry">
            <mxPoint x="220" y="559" as="sourcePoint" />
            <mxPoint x="220" y="524" as="targetPoint" />
          </mxGeometry>
        </mxCell>
        <mxCell id="8dy6UaJ0SXX49K8TvFF3-4" value="15" style="whiteSpace=wrap;html=1;aspect=fixed;fillColor=default;strokeColor=default;fontColor=default;" parent="1" vertex="1">
          <mxGeometry x="200" y="560" width="40" height="40" as="geometry" />
        </mxCell>
        <mxCell id="8dy6UaJ0SXX49K8TvFF3-12" value="" style="endArrow=none;dashed=1;html=1;dashPattern=1 3;strokeWidth=3;rounded=0;labelBackgroundColor=default;fontColor=default;strokeColor=default;fillColor=default;" parent="1" edge="1">
          <mxGeometry width="50" height="50" relative="1" as="geometry">
            <mxPoint x="126" y="580" as="sourcePoint" />
            <mxPoint x="156" y="580" as="targetPoint" />
          </mxGeometry>
        </mxCell>
        <mxCell id="8dy6UaJ0SXX49K8TvFF3-14" value="1" style="whiteSpace=wrap;html=1;aspect=fixed;fillColor=default;strokeColor=default;fontColor=default;" parent="1" vertex="1">
          <mxGeometry x="350" y="560" width="40" height="40" as="geometry" />
        </mxCell>
        <mxCell id="8dy6UaJ0SXX49K8TvFF3-15" value="2" style="whiteSpace=wrap;html=1;aspect=fixed;fillColor=default;strokeColor=default;fontColor=default;" parent="1" vertex="1">
          <mxGeometry x="390" y="560" width="40" height="40" as="geometry" />
        </mxCell>
        <mxCell id="8dy6UaJ0SXX49K8TvFF3-16" value="14" style="whiteSpace=wrap;html=1;aspect=fixed;fillColor=default;strokeColor=default;fontColor=default;" parent="1" vertex="1">
          <mxGeometry x="470" y="560" width="40" height="40" as="geometry" />
        </mxCell>
        <mxCell id="8dy6UaJ0SXX49K8TvFF3-17" value="15" style="whiteSpace=wrap;html=1;aspect=fixed;fillColor=default;strokeColor=default;fontColor=default;" parent="1" vertex="1">
          <mxGeometry x="510" y="560" width="40" height="40" as="geometry" />
        </mxCell>
        <mxCell id="8dy6UaJ0SXX49K8TvFF3-18" value="" style="endArrow=none;dashed=1;html=1;dashPattern=1 3;strokeWidth=3;rounded=0;labelBackgroundColor=default;fontColor=default;strokeColor=default;fillColor=default;" parent="1" edge="1">
          <mxGeometry width="50" height="50" relative="1" as="geometry">
            <mxPoint x="436" y="580" as="sourcePoint" />
            <mxPoint x="466" y="580" as="targetPoint" />
          </mxGeometry>
        </mxCell>
        <mxCell id="8dy6UaJ0SXX49K8TvFF3-19" value="16" style="whiteSpace=wrap;html=1;aspect=fixed;fillColor=default;strokeColor=default;fontColor=default;" parent="1" vertex="1">
          <mxGeometry x="550" y="560" width="40" height="40" as="geometry" />
        </mxCell>
        <mxCell id="8dy6UaJ0SXX49K8TvFF3-20" value="17" style="whiteSpace=wrap;html=1;aspect=fixed;fillColor=default;strokeColor=default;fontColor=default;" parent="1" vertex="1">
          <mxGeometry x="590" y="560" width="40" height="40" as="geometry" />
        </mxCell>
        <mxCell id="8dy6UaJ0SXX49K8TvFF3-21" value="30" style="whiteSpace=wrap;html=1;aspect=fixed;fillColor=default;strokeColor=default;fontColor=default;" parent="1" vertex="1">
          <mxGeometry x="670" y="560" width="40" height="40" as="geometry" />
        </mxCell>
        <mxCell id="8dy6UaJ0SXX49K8TvFF3-22" value="31" style="whiteSpace=wrap;html=1;aspect=fixed;fillColor=default;strokeColor=default;fontColor=default;" parent="1" vertex="1">
          <mxGeometry x="710" y="560" width="40" height="40" as="geometry" />
        </mxCell>
        <mxCell id="8dy6UaJ0SXX49K8TvFF3-23" value="" style="endArrow=none;dashed=1;html=1;dashPattern=1 3;strokeWidth=3;rounded=0;labelBackgroundColor=default;fontColor=default;strokeColor=default;fillColor=default;" parent="1" edge="1">
          <mxGeometry width="50" height="50" relative="1" as="geometry">
            <mxPoint x="636" y="580" as="sourcePoint" />
            <mxPoint x="666" y="580" as="targetPoint" />
          </mxGeometry>
        </mxCell>
        <mxCell id="8dy6UaJ0SXX49K8TvFF3-24" value="15" style="ellipse;whiteSpace=wrap;html=1;aspect=fixed;strokeColor=#b85450;fillColor=#f8cecc;fontColor=default;" parent="1" vertex="1">
          <mxGeometry x="200" y="560" width="40" height="40" as="geometry" />
        </mxCell>
        <mxCell id="8dy6UaJ0SXX49K8TvFF3-26" value="" style="ellipse;whiteSpace=wrap;html=1;aspect=fixed;strokeColor=#82b366;fillColor=#d5e8d4;labelBackgroundColor=default;fontColor=default;" parent="1" vertex="1">
          <mxGeometry x="200" y="480" width="40" height="40" as="geometry" />
        </mxCell>
        <mxCell id="8dy6UaJ0SXX49K8TvFF3-30" value="" style="edgeStyle=orthogonalEdgeStyle;rounded=0;orthogonalLoop=1;jettySize=auto;html=1;labelBackgroundColor=default;fontSize=2;fontColor=default;strokeColor=default;strokeWidth=2;fillColor=default;fontStyle=0;exitX=0.5;exitY=0;exitDx=0;exitDy=0;" parent="1" edge="1">
          <mxGeometry relative="1" as="geometry">
            <mxPoint x="220" y="477" as="sourcePoint" />
            <mxPoint x="220" y="442" as="targetPoint" />
          </mxGeometry>
        </mxCell>
        <mxCell id="8dy6UaJ0SXX49K8TvFF3-31" value="" style="ellipse;whiteSpace=wrap;html=1;aspect=fixed;strokeColor=#82b366;fillColor=#d5e8d4;labelBackgroundColor=default;fontColor=default;" parent="1" vertex="1">
          <mxGeometry x="200" y="400" width="40" height="40" as="geometry" />
        </mxCell>
        <mxCell id="8dy6UaJ0SXX49K8TvFF3-32" value="" style="edgeStyle=orthogonalEdgeStyle;rounded=0;orthogonalLoop=1;jettySize=auto;html=1;labelBackgroundColor=default;fontSize=2;fontColor=default;strokeColor=default;strokeWidth=2;fillColor=default;fontStyle=0;exitX=0.5;exitY=0;exitDx=0;exitDy=0;" parent="1" edge="1">
          <mxGeometry relative="1" as="geometry">
            <mxPoint x="220" y="397" as="sourcePoint" />
            <mxPoint x="220" y="362" as="targetPoint" />
          </mxGeometry>
        </mxCell>
        <mxCell id="8dy6UaJ0SXX49K8TvFF3-33" value="" style="ellipse;whiteSpace=wrap;html=1;aspect=fixed;strokeColor=#b85450;fillColor=#f8cecc;labelBackgroundColor=default;fontColor=default;" parent="1" vertex="1">
          <mxGeometry x="200" y="320" width="40" height="40" as="geometry" />
        </mxCell>
        <mxCell id="8dy6UaJ0SXX49K8TvFF3-34" value="31" style="ellipse;whiteSpace=wrap;html=1;aspect=fixed;strokeColor=#82b366;fillColor=#d5e8d4;labelBackgroundColor=default;fontColor=default;" parent="1" vertex="1">
          <mxGeometry x="710" y="560" width="40" height="40" as="geometry" />
        </mxCell>
        <mxCell id="8dy6UaJ0SXX49K8TvFF3-35" value="" style="edgeStyle=orthogonalEdgeStyle;rounded=0;orthogonalLoop=1;jettySize=auto;html=1;labelBackgroundColor=default;fontSize=2;fontColor=default;strokeColor=default;strokeWidth=2;fillColor=default;fontStyle=0;exitX=0.5;exitY=0;exitDx=0;exitDy=0;" parent="1" edge="1">
          <mxGeometry relative="1" as="geometry">
            <mxPoint x="730" y="557" as="sourcePoint" />
            <mxPoint x="730" y="522" as="targetPoint" />
          </mxGeometry>
        </mxCell>
        <mxCell id="8dy6UaJ0SXX49K8TvFF3-36" value="" style="ellipse;whiteSpace=wrap;html=1;aspect=fixed;strokeColor=#82b366;fillColor=#d5e8d4;labelBackgroundColor=default;fontColor=default;" parent="1" vertex="1">
          <mxGeometry x="710" y="480" width="40" height="40" as="geometry" />
        </mxCell>
        <mxCell id="8dy6UaJ0SXX49K8TvFF3-39" value="15" style="ellipse;whiteSpace=wrap;html=1;aspect=fixed;strokeColor=#b85450;fillColor=#f8cecc;labelBackgroundColor=default;fontColor=default;" parent="1" vertex="1">
          <mxGeometry x="510" y="560" width="40" height="40" as="geometry" />
        </mxCell>
        <mxCell id="8dy6UaJ0SXX49K8TvFF3-40" value="" style="edgeStyle=orthogonalEdgeStyle;rounded=0;orthogonalLoop=1;jettySize=auto;html=1;labelBackgroundColor=default;fontSize=2;fontColor=default;strokeColor=default;strokeWidth=2;fillColor=default;fontStyle=0;exitX=0.5;exitY=0;exitDx=0;exitDy=0;" parent="1" edge="1">
          <mxGeometry relative="1" as="geometry">
            <mxPoint x="530" y="557" as="sourcePoint" />
            <mxPoint x="530" y="522" as="targetPoint" />
          </mxGeometry>
        </mxCell>
        <mxCell id="8dy6UaJ0SXX49K8TvFF3-41" value="" style="ellipse;whiteSpace=wrap;html=1;aspect=fixed;strokeColor=#b85450;fillColor=#f8cecc;labelBackgroundColor=default;fontColor=default;" parent="1" vertex="1">
          <mxGeometry x="510" y="480" width="40" height="40" as="geometry" />
        </mxCell>
        <mxCell id="8dy6UaJ0SXX49K8TvFF3-43" value="15" style="ellipse;whiteSpace=wrap;html=1;aspect=fixed;strokeColor=#b85450;fillColor=#f8cecc;fontColor=default;" parent="1" vertex="1">
          <mxGeometry x="510" y="560" width="40" height="40" as="geometry" />
        </mxCell>
        <mxCell id="8dy6UaJ0SXX49K8TvFF3-44" value="31" style="ellipse;whiteSpace=wrap;html=1;aspect=fixed;strokeColor=#82b366;fillColor=#d5e8d4;fontColor=default;" parent="1" vertex="1">
          <mxGeometry x="710" y="560" width="40" height="40" as="geometry" />
        </mxCell>
        <mxCell id="8dy6UaJ0SXX49K8TvFF3-46" value="" style="shape=flexArrow;endArrow=classic;html=1;rounded=0;labelBackgroundColor=default;fontSize=2;fontColor=default;strokeWidth=2;strokeColor=#6c8ebf;fillColor=#dae8fc;" parent="1" edge="1">
          <mxGeometry width="50" height="50" relative="1" as="geometry">
            <mxPoint x="270" y="579.5" as="sourcePoint" />
            <mxPoint x="330" y="579.5" as="targetPoint" />
          </mxGeometry>
        </mxCell>
        <mxCell id="8dy6UaJ0SXX49K8TvFF3-47" value="&lt;font&gt;&lt;font style=&quot;font-size: 30px&quot;&gt;扩容&lt;/font&gt;&lt;br&gt;&lt;/font&gt;" style="text;html=1;resizable=0;autosize=1;align=center;verticalAlign=middle;points=[];fillColor=none;strokeColor=none;rounded=0;labelBackgroundColor=default;fontSize=2;fontColor=#007FFF;" parent="1" vertex="1">
          <mxGeometry x="260" y="540" width="80" height="10" as="geometry" />
        </mxCell>
        <mxCell id="8dy6UaJ0SXX49K8TvFF3-49" value="&lt;font style=&quot;font-size: 16px&quot;&gt;table[15]红色节点表示hash值以 0 1111 结尾，扩容后还在table[15]的位置&lt;/font&gt;" style="text;html=1;resizable=0;autosize=1;align=center;verticalAlign=middle;points=[];fillColor=none;strokeColor=none;rounded=0;labelBackgroundColor=default;fontSize=20;fontColor=default;" parent="1" vertex="1">
          <mxGeometry x="40" y="630" width="530" height="30" as="geometry" />
        </mxCell>
        <mxCell id="8dy6UaJ0SXX49K8TvFF3-51" value="&lt;font style=&quot;font-size: 16px&quot;&gt;table[15]红色节点表示hash值以 1 1111 结尾，扩容后在 原桶位下标 + 原table长度 的位置，即table[31]&lt;/font&gt;" style="text;html=1;resizable=0;autosize=1;align=center;verticalAlign=middle;points=[];fillColor=none;strokeColor=none;rounded=0;labelBackgroundColor=default;fontSize=20;fontColor=default;" parent="1" vertex="1">
          <mxGeometry x="40" y="670" width="740" height="30" as="geometry" />
        </mxCell>
      </root>
    </mxGraphModel>
  </diagram>
</mxfile>
